<svg width="24" height="24" viewBox="0 0 24 24" fill="none" xmlns="http://www.w3.org/2000/svg">
<g clip-path="url(#clip0_166_13)">
<path d="M2 5.99985H5.828C4.493 8.90485 4.493 15.0958 5.828 17.9998H2C0.689 16.8918 0 14.4488 0 12.0048C0 9.55485 0.692 7.10485 2 5.99985ZM24 12.0048C24.005 20.0358 20.855 24.8688 17.879 23.8688C17.105 23.6088 8.312 18.2898 8.312 18.2898C6.319 16.0698 6.319 8.00185 8.312 5.78185C8.312 5.78185 17.473 0.305847 17.86 0.148847C20.551 -0.937153 23.996 3.96885 24 12.0048ZM20.617 4.31185C19.564 2.04785 17.615 2.08585 16.583 4.31385C15.995 5.58485 15.59 7.47885 15.373 9.11085H15.9C17.487 9.11085 18.773 10.3978 18.773 11.9858C18.773 13.5738 17.487 14.8608 15.9 14.8608H15.385C15.602 16.4638 16.001 18.3988 16.591 19.7508C17.579 22.0218 19.653 21.9828 20.624 19.7488C22.57 15.2718 22.396 8.13985 20.617 4.31185Z" fill="#FEB200"/>
</g>
<defs>
<clipPath id="clip0_166_13">
<rect width="24" height="24" fill="white"/>
</clipPath>
</defs>
</svg>
