<svg width="24" height="24" viewBox="0 0 24 24" fill="none" xmlns="http://www.w3.org/2000/svg">
<g clip-path="url(#clip0_185_2)">
<path fill-rule="evenodd" clip-rule="evenodd" d="M16.0001 22.621L12.4791 15.826C12.4721 15.83 10.5051 16.796 10.4151 16.837C8.17511 17.923 3.61611 9.017 5.80611 7.843L7.88811 6.817L4.39611 0L2.29011 1.039C0.651106 1.894 -0.0228942 3.705 0.00110584 5.955C0.0761058 12.903 6.81011 24.026 12.3101 24C12.8511 23.997 13.3801 23.887 13.8901 23.654C14.0111 23.599 15.9921 22.625 16.0001 22.621ZM13.5001 9C14.3281 9 15.0001 9.672 15.0001 10.5C15.0001 11.328 14.3281 12 13.5001 12C12.6721 12 12.0001 11.328 12.0001 10.5C12.0001 9.672 12.6721 9 13.5001 9ZM22.5001 9C23.3281 9 24.0001 9.672 24.0001 10.5C24.0001 11.328 23.3281 12 22.5001 12C21.6721 12 21.0001 11.328 21.0001 10.5C21.0001 9.672 21.6721 9 22.5001 9ZM18.0001 9C18.8281 9 19.5001 9.672 19.5001 10.5C19.5001 11.328 18.8281 12 18.0001 12C17.1721 12 16.5001 11.328 16.5001 10.5C16.5001 9.672 17.1721 9 18.0001 9Z" fill="#FEB200"/>
</g>
<defs>
<clipPath id="clip0_185_2">
<rect width="24" height="24" fill="white"/>
</clipPath>
</defs>
</svg>
