<svg width="20" height="24" viewBox="0 0 20 24" fill="none" xmlns="http://www.w3.org/2000/svg">
<path fill-rule="evenodd" clip-rule="evenodd" d="M20 22C20 23.1046 19.1046 24 18 24H2C0.895431 24 0 23.1046 0 22V2C0 0.89543 0.895431 0 2 0H13.1716C13.702 0 14.2107 0.210714 14.5858 0.585786L19.4142 5.41421C19.7893 5.78929 20 6.29799 20 6.82843V22ZM13 1H3C1.89543 1 1 1.89543 1 3V21C1 22.1046 1.89543 23 3 23H17C18.1046 23 19 22.1046 19 21V7H15C13.8954 7 13 6.10457 13 5V1ZM15.5 16C15.7761 16 16 16.2239 16 16.5V16.5C16 16.7761 15.7761 17 15.5 17H4.5C4.22386 17 4 16.7761 4 16.5V16.5C4 16.2239 4.22386 16 4.5 16H15.5ZM15.5 13C15.7761 13 16 13.2239 16 13.5V13.5C16 13.7761 15.7761 14 15.5 14H4.5C4.22386 14 4 13.7761 4 13.5V13.5C4 13.2239 4.22386 13 4.5 13H15.5ZM15.5 10C15.7761 10 16 10.2239 16 10.5V10.5C16 10.7761 15.7761 11 15.5 11H4.5C4.22386 11 4 10.7761 4 10.5V10.5C4 10.2239 4.22386 10 4.5 10H15.5ZM14 4C14 5.10457 14.8954 6 16 6H18.586L14 1.414V4Z" fill="#feb200"/>
</svg>
