<svg width="17" height="19" viewBox="0 0 17 19" fill="none" xmlns="http://www.w3.org/2000/svg">
<path d="M10.3349 12.0692C10.3349 12.0692 17.041 6.97521 16.2971 1.14521C16.2897 1.04621 16.2525 0.952293 16.1907 0.877211C16.1221 0.810291 16.0341 0.76976 15.9409 0.762211C10.5287 -0.0387893 5.80056 7.18421 5.80056 7.18421C1.69846 6.66721 1.99676 7.52821 0.125264 12.2602C-0.232886 13.1622 0.347564 13.4732 0.984064 13.2192L3.02466 12.4082L5.48516 15.0562L4.73181 17.2552C4.49621 17.9412 4.78406 18.5662 5.62291 18.1812C10.0157 16.1652 10.8156 16.4872 10.3349 12.0692ZM11.2935 6.15321C11.0201 5.85592 10.8673 5.45842 10.8673 5.04471C10.8673 4.631 11.0201 4.2335 11.2935 3.93621C11.4271 3.79124 11.587 3.67598 11.7637 3.59728C11.9405 3.51857 12.1304 3.47802 12.3223 3.47802C12.5142 3.47802 12.7042 3.51857 12.8809 3.59728C13.0576 3.67598 13.2175 3.79124 13.3512 3.93621C13.6245 4.2335 13.7773 4.631 13.7773 5.04471C13.7773 5.45842 13.6245 5.85592 13.3512 6.15321C13.2175 6.29818 13.0576 6.41344 12.8809 6.49214C12.7042 6.57085 12.5142 6.61141 12.3223 6.61141C12.1304 6.61141 11.9405 6.57085 11.7637 6.49214C11.587 6.41344 11.4271 6.29818 11.2935 6.15321Z" fill="#feb200"/>
</svg>
