<svg width="18" height="18" viewBox="0 0 18 18" fill="none" xmlns="http://www.w3.org/2000/svg">
<path d="M0.522 6C1.75875 2.505 5.082 0 9 0C13.9703 0 18 4.02975 18 9C18 9.51225 17.9475 10.011 17.865 10.5H16.7228C15.87 10.5 15.7358 10.1198 15.2738 8.65425C14.94 7.59375 14.3858 5.991 13.1655 5.991C11.9235 5.991 11.4428 7.65225 10.9958 8.9955C10.752 9.72525 10.605 10.1663 10.3868 10.1663C10.1775 10.1663 10.0785 9.72525 9.83175 8.994C9.36975 7.6275 8.8425 5.99175 7.608 5.99175C6.32925 5.99175 5.781 7.782 5.41425 8.92275C5.14875 9.7515 5.06475 10.167 4.82925 10.167C4.629 10.167 4.56525 9.83025 4.33425 9.159C3.8085 7.62825 3.6405 6 1.28925 6H0.522ZM16.6155 12C14.8927 12 14.4818 11.1743 13.8383 9.32775C13.44 8.18175 13.3973 7.77225 13.1663 7.77225C12.9405 7.77225 12.876 8.2425 12.432 9.50625C12.0428 10.6125 11.5088 11.9895 10.3868 11.9895C9.13875 11.9895 8.6085 10.3207 8.1495 8.9325C7.89525 8.1645 7.83075 7.81425 7.608 7.81425C7.40175 7.81425 7.3455 8.12925 7.086 8.89125C6.609 10.2952 6.08025 11.9903 4.82925 11.9903C3.59475 11.9903 3.03 10.323 2.7225 9.327C2.26875 7.85325 2.1885 7.5 1.36425 7.5H0.135C0.0525 7.989 0 8.48775 0 9C0 13.9703 4.02975 18 9 18C12.9173 18 16.2398 15.4935 17.4773 12H16.6155Z" fill="white"/>
</svg>
