<svg width="14" height="18" viewBox="0 0 14 18" fill="none" xmlns="http://www.w3.org/2000/svg">
<path d="M12.25 6H11.375V4.28571C11.375 1.92 9.415 0 7 0C4.585 0 2.625 1.92 2.625 4.28571V6H1.75C0.783125 6 0 6.76714 0 7.71429V16.2857C0 17.2329 0.783125 18 1.75 18H12.25C13.2169 18 14 17.2329 14 16.2857V7.71429C14 6.76714 13.2169 6 12.25 6ZM7 13.7143C6.03312 13.7143 5.25 12.9471 5.25 12C5.25 11.0529 6.03312 10.2857 7 10.2857C7.96688 10.2857 8.75 11.0529 8.75 12C8.75 12.9471 7.96688 13.7143 7 13.7143ZM9.7125 6H4.2875V4.28571C4.2875 2.82 5.50375 1.62857 7 1.62857C8.49625 1.62857 9.7125 2.82 9.7125 4.28571V6Z" fill="#feb200"/>
</svg>
