<svg width="19" height="19" viewBox="0 0 19 19" fill="none" xmlns="http://www.w3.org/2000/svg">
<path d="M5.7 15.2C4.65025 15.2 3.8095 16.0502 3.8095 17.1C3.8095 18.1497 4.65025 19 5.7 19C6.74975 19 7.6 18.1497 7.6 17.1C7.6 16.0502 6.74975 15.2 5.7 15.2ZM0 0V1.9H1.9L5.31525 9.10575L4.03275 11.4332C3.8855 11.7087 3.8 12.0175 3.8 12.35C3.8 13.3997 4.65025 14.25 5.7 14.25H17.1V12.35H6.10375C5.97075 12.35 5.86625 12.2455 5.86625 12.1125C5.86625 12.0697 5.87575 12.0317 5.89475 11.9985L6.745 10.45H13.8225C14.535 10.45 15.1572 10.0558 15.485 9.4715L18.8812 3.306C18.9572 3.173 19 3.01625 19 2.85C19 2.59804 18.8999 2.35641 18.7218 2.17825C18.5436 2.00009 18.302 1.9 18.05 1.9H4.00425L3.10175 0H0ZM15.2 15.2C14.1502 15.2 13.3095 16.0502 13.3095 17.1C13.3095 18.1497 14.1502 19 15.2 19C16.2497 19 17.1 18.1497 17.1 17.1C17.1 16.0502 16.2497 15.2 15.2 15.2Z" fill="#feb200"/>
</svg>
