<svg width="23" height="23" viewBox="0 0 23 23" fill="none" xmlns="http://www.w3.org/2000/svg">
<path d="M20.5154 18.9316L16.2887 14.7049C17.3063 13.3502 17.8556 11.7013 17.8537 10.007C17.8537 5.67918 14.3328 2.1582 10.005 2.1582C5.67723 2.1582 2.15625 5.67918 2.15625 10.007C2.15625 14.3347 5.67723 17.8557 10.005 17.8557C11.6993 17.8576 13.3482 17.3082 14.7029 16.2906L18.9296 20.5173C19.1436 20.7086 19.4226 20.8107 19.7095 20.8026C19.9964 20.7946 20.2693 20.6771 20.4722 20.4742C20.6751 20.2712 20.7927 19.9983 20.8007 19.7115C20.8087 19.4246 20.7066 19.1455 20.5154 18.9316ZM4.39875 10.007C4.39875 8.89814 4.72755 7.81423 5.34357 6.89229C5.9596 5.97034 6.83517 5.25178 7.85958 4.82745C8.88399 4.40313 10.0112 4.29211 11.0987 4.50843C12.1862 4.72474 13.1852 5.25869 13.9692 6.04274C14.7533 6.82678 15.2872 7.82572 15.5035 8.91323C15.7198 10.0007 15.6088 11.128 15.1845 12.1524C14.7602 13.1768 14.0416 14.0524 13.1197 14.6684C12.1977 15.2844 11.1138 15.6132 10.005 15.6132C8.51868 15.6114 7.09374 15.0202 6.04275 13.9692C4.99176 12.9182 4.40053 11.4933 4.39875 10.007Z" fill="white"/>
</svg>
