<svg width="24" height="24" viewBox="0 0 24 24" fill="none" xmlns="http://www.w3.org/2000/svg">
<g clip-path="url(#clip0_194_20)">
<path d="M21.062 13.875L19.437 7.896L22.804 6.804C20.865 2.782 16.764 0 12 0C7.221 0 3.106 2.801 1.176 6.845L4.562 7.896L2.937 13.875L0 13.108C0.56 19.216 5.747 24 12 24C18.253 24 23.439 19.216 24 13.108L21.062 13.875ZM6.236 15.72C5.922 15.489 5.854 15.047 6.085 14.733L6.891 13.645C7.121 13.332 7.561 13.262 7.877 13.494C8.193 13.725 8.26 14.166 8.029 14.481L7.222 15.568C7.005 15.866 6.535 15.938 6.236 15.72ZM7.66 16.76C7.347 16.528 7.273 16.096 7.504 15.782L8.316 14.686C8.545 14.373 8.986 14.305 9.3 14.535C9.615 14.765 9.685 15.208 9.452 15.521L8.64 16.618C8.428 16.91 7.968 16.984 7.66 16.76ZM9.086 17.8C8.773 17.569 8.703 17.127 8.935 16.812L9.74 15.726C9.973 15.411 10.414 15.344 10.727 15.574C11.041 15.805 11.11 16.247 10.878 16.561L10.073 17.649C9.855 17.945 9.387 18.021 9.086 17.8ZM12.303 17.599L11.496 18.691C11.281 18.985 10.814 19.065 10.51 18.842C10.196 18.611 10.127 18.17 10.358 17.856L11.167 16.764C11.396 16.453 11.837 16.382 12.153 16.615C12.467 16.843 12.535 17.286 12.303 17.599ZM13.046 19C12.904 19 12.75 18.967 12.595 18.887C12.83 18.569 13.174 18.145 13.302 17.843L13.461 18.002C13.948 18.489 13.588 19 13.046 19ZM17.968 16.021C17.693 16.297 17.245 16.297 16.97 16.021L14.945 13.996C14.88 13.929 14.771 13.927 14.702 13.991C14.627 14.058 14.624 14.175 14.696 14.246L16.571 16.122C16.847 16.398 16.847 16.844 16.571 17.12C16.296 17.396 15.848 17.396 15.573 17.12L14.05 15.596C13.982 15.528 13.872 15.527 13.803 15.594C13.731 15.663 13.731 15.777 13.8 15.846L15.064 17.111C15.34 17.387 15.34 17.833 15.064 18.11C14.79 18.385 14.342 18.386 14.067 18.11L13.413 17.456C13.583 16.414 12.818 15.565 11.883 15.484C11.635 14.893 11.08 14.499 10.461 14.445C10.223 13.874 9.677 13.461 9.037 13.405C8.531 12.197 6.879 11.973 6.087 13.054L5.647 13.649C5.198 13.48 4.713 13.339 4.158 13.208L5.431 8.523C7.33 8.506 8.827 6.706 10.58 7.814C10.006 8.524 9.535 9.091 8.825 9.505C8.258 9.837 7.992 10.486 8.165 11.121C8.381 11.918 9.189 12.475 10.133 12.475C11.381 12.475 12.673 11.45 13.654 10.714C14.232 11.291 17.485 14.489 17.969 15.024C18.243 15.298 18.243 15.744 17.968 16.021ZM18.463 14.067C18.463 14.067 15.338 10.983 14.41 10.054C13.914 9.56 13.572 9.492 13 9.953C12.272 10.539 11.381 11.135 10.723 11.366C9.432 11.818 8.727 10.719 9.327 10.367C10.547 9.656 11.141 8.63 12.166 7.469C12.45 7.147 12.789 7.028 13.135 7.028C13.511 7.028 13.896 7.168 14.23 7.34C15.747 8.124 17.127 8.659 18.581 8.552L19.877 13.32C19.413 13.528 18.946 13.77 18.463 14.067Z" fill="#FEB200"/>
</g>
<defs>
<clipPath id="clip0_194_20">
<rect width="24" height="24" fill="white"/>
</clipPath>
</defs>
</svg>
