<svg width="18" height="18" viewBox="0 0 18 18" fill="none" xmlns="http://www.w3.org/2000/svg">
<g clip-path="url(#clip0_2043_2257)">
<path d="M9 0C4.02975 0 0 4.02975 0 9C0 13.9702 4.02975 18 9 18C13.9702 18 18 13.9702 18 9C18 4.02975 13.9702 0 9 0ZM9.75 12.7103V13.5H9V12.7515C8.22375 12.738 7.4205 12.5527 6.75 12.2062L7.09125 10.9732C7.80825 11.2515 8.763 11.547 9.51 11.3782C10.3718 11.1832 10.548 10.2967 9.5955 9.87C8.89725 9.5445 6.762 9.26625 6.762 7.43775C6.762 6.4155 7.54125 5.5005 9 5.30025V4.5H9.75V5.2635C10.293 5.27775 10.902 5.37225 11.5815 5.5785L11.31 6.81375C10.734 6.61125 10.0973 6.4275 9.47775 6.465C8.361 6.53025 8.26275 7.497 9.042 7.902C10.326 8.50575 12 8.9535 12 10.5623C12.0015 11.8508 10.9927 12.5363 9.75 12.7103Z" fill="white"/>
</g>
<defs>
<clipPath id="clip0_2043_2257">
<rect width="18" height="18" fill="white"/>
</clipPath>
</defs>
</svg>
