<svg width="28" height="28" viewBox="0 0 28 28" fill="none" xmlns="http://www.w3.org/2000/svg">
<path d="M5.22238 5.68918H22.7224C22.9268 5.68909 23.131 5.70206 23.3338 5.72801C23.2651 5.24554 23.0993 4.78199 22.8466 4.3653C22.5939 3.94861 22.2594 3.58742 21.8633 3.3035C21.4672 3.01958 21.0177 2.81881 20.5419 2.7133C20.0662 2.60778 19.5739 2.59971 19.095 2.68957L4.70285 5.14668H4.68645C3.78305 5.31944 2.97968 5.83057 2.44043 6.57567C3.25286 5.9978 4.2254 5.6879 5.22238 5.68918V5.68918Z" fill="black"/>
<path d="M22.7217 7.00024H5.22168C4.29373 7.00126 3.40408 7.37033 2.74793 8.02649C2.09177 8.68265 1.72269 9.5723 1.72168 10.5002V21.0002C1.72269 21.9282 2.09177 22.8178 2.74793 23.474C3.40408 24.1302 4.29373 24.4992 5.22168 24.5002H22.7217C23.6496 24.4992 24.5393 24.1302 25.1954 23.474C25.8516 22.8178 26.2207 21.9282 26.2217 21.0002V10.5002C26.2207 9.5723 25.8516 8.68265 25.1954 8.02649C24.5393 7.37033 23.6496 7.00126 22.7217 7.00024V7.00024ZM20.124 17.5002C19.7779 17.5002 19.4396 17.3976 19.1518 17.2053C18.864 17.013 18.6397 16.7397 18.5072 16.4199C18.3748 16.1002 18.3401 15.7483 18.4077 15.4088C18.4752 15.0694 18.6418 14.7575 18.8866 14.5128C19.1313 14.2681 19.4431 14.1014 19.7826 14.0339C20.1221 13.9663 20.474 14.001 20.7937 14.1335C21.1135 14.2659 21.3868 14.4902 21.5791 14.778C21.7714 15.0658 21.874 15.4041 21.874 15.7502C21.874 16.2144 21.6896 16.6595 21.3615 16.9877C21.0333 17.3159 20.5882 17.5002 20.124 17.5002Z" fill="black"/>
<path d="M1.75 14.1937V8.75154C1.75 7.5663 2.40634 5.57921 4.6844 5.14876C6.61788 4.78613 8.53222 4.78613 8.53222 4.78613C8.53222 4.78613 9.79021 5.66126 8.751 5.66126C7.71179 5.66126 7.73913 7.00129 8.751 7.00129C9.76286 7.00129 8.751 8.28663 8.751 8.28663L4.6762 12.9084L1.75 14.1937Z" fill="black"/>
</svg>
