<svg width="628" height="628" viewBox="0 0 628 628" fill="none" xmlns="http://www.w3.org/2000/svg">
<g clip-path="url(#clip0_2100_2268)">
<path fill-rule="evenodd" clip-rule="evenodd" d="M314 0C487.302 0 628 140.698 628 314C628 487.302 487.302 628 314 628C140.698 628 0 487.302 0 314C0 140.698 140.698 0 314 0ZM380.908 418.667H247.066C261.353 483.037 284.772 526.316 314 568.968C345.243 523.412 367.406 479.74 380.908 418.667ZM193.633 418.667H74.1302C106.472 492.587 171.052 548.767 250.886 568.235C223.463 522.888 204.231 472.518 193.633 418.667ZM553.87 418.667H434.367C424.135 470.686 405.714 520.376 377.454 567.66C456.268 547.694 521.816 491.907 553.87 418.667ZM187.406 261.667H57.5667C50.5802 296.023 50.5802 331.924 57.5667 366.333H186.176C183.062 331.558 183.533 296.416 187.406 261.667ZM387.868 261.667H240.105C235.788 296.364 235.264 331.584 238.718 366.333H389.255C392.736 331.584 392.16 296.39 387.868 261.667ZM570.433 261.667H440.568C444.441 296.416 444.912 331.558 441.824 366.333H570.433C577.237 332.709 577.577 297.044 570.433 261.667ZM252.351 59.4245C171.836 78.5785 106.681 134.941 74.1302 209.333H195.884C207.266 155.901 226.708 105.059 252.351 59.4245ZM313.974 58.1685C285.478 104.483 263.995 148.522 249.525 209.333H378.448C364.475 150.563 343.464 106.027 313.974 58.1685ZM375.936 59.974C402.443 107.388 421.283 158.361 432.09 209.333H553.87C521.632 135.648 455.431 79.599 375.936 59.974Z" fill="#feb200"/>
</g>
<defs>
<clipPath id="clip0_2100_2268">
<rect width="628" height="628" fill="white"/>
</clipPath>
</defs>
</svg>
